<svg width="21" height="21" viewBox="0 0 21 21" fill="none" xmlns="http://www.w3.org/2000/svg">
<g id="fi-rr-screen" clip-path="url(#clip0_1_602)">
<path id="Vector" d="M16.625 2.625H4.375C3.2151 2.62639 2.10311 3.08777 1.28294 3.90794C0.462772 4.72811 0.00138938 5.8401 0 7L0 12.25C0.00138938 13.4099 0.462772 14.5219 1.28294 15.3421C2.10311 16.1622 3.2151 16.6236 4.375 16.625H9.625V17.5H7C6.76794 17.5 6.54538 17.5922 6.38128 17.7563C6.21719 17.9204 6.125 18.1429 6.125 18.375C6.125 18.6071 6.21719 18.8296 6.38128 18.9937C6.54538 19.1578 6.76794 19.25 7 19.25H14C14.2321 19.25 14.4546 19.1578 14.6187 18.9937C14.7828 18.8296 14.875 18.6071 14.875 18.375C14.875 18.1429 14.7828 17.9204 14.6187 17.7563C14.4546 17.5922 14.2321 17.5 14 17.5H11.375V16.625H16.625C17.7849 16.6236 18.8969 16.1622 19.7171 15.3421C20.5372 14.5219 20.9986 13.4099 21 12.25V7C20.9986 5.8401 20.5372 4.72811 19.7171 3.90794C18.8969 3.08777 17.7849 2.62639 16.625 2.625ZM19.25 12.25C19.25 12.9462 18.9734 13.6139 18.4812 14.1062C17.9889 14.5984 17.3212 14.875 16.625 14.875H4.375C3.67881 14.875 3.01113 14.5984 2.51884 14.1062C2.02656 13.6139 1.75 12.9462 1.75 12.25V7C1.75 6.30381 2.02656 5.63613 2.51884 5.14384C3.01113 4.65156 3.67881 4.375 4.375 4.375H16.625C17.3212 4.375 17.9889 4.65156 18.4812 5.14384C18.9734 5.63613 19.25 6.30381 19.25 7V12.25Z" fill="#374957"/>
</g>
<defs>
<clipPath id="clip0_1_602">
<rect width="21" height="21" fill="white"/>
</clipPath>
</defs>
</svg>
