<svg width="23" height="11" viewBox="0 0 23 11" fill="none" xmlns="http://www.w3.org/2000/svg">
<path d="M2.036 4.444V2.452H6.284V0.603999H0.0920001V10H2.036V6.292H5.84V4.444H2.036ZM7.54634 10.144C7.90634 10.144 8.20634 10.012 8.45834 9.76C8.71034 9.508 8.84234 9.196 8.84234 8.848C8.84234 8.128 8.26634 7.54 7.54634 7.54C6.82634 7.54 6.25034 8.128 6.25034 8.848C6.25034 9.196 6.38234 9.508 6.63434 9.76C6.88634 10.012 7.19834 10.144 7.54634 10.144ZM10.2878 0.603999V10H16.4678V8.188H12.2078V6.16H15.9998V4.336H12.2078V2.428H16.4438V0.603999H10.2878ZM22.6008 8.068C22.6008 6.952 21.7488 6.316 20.1288 5.98C19.5648 5.86 19.2888 5.668 19.2888 5.392C19.2888 5.14 19.5768 4.924 19.9608 4.924C20.5008 4.924 20.8848 5.128 21.1248 5.536L22.4808 4.732C22.0608 3.952 21.1968 3.436 20.0088 3.436C19.3368 3.436 18.7608 3.628 18.2688 4.012C17.7888 4.384 17.5488 4.876 17.5488 5.464C17.5488 6.508 18.3048 7.204 19.8288 7.54C20.6448 7.72 20.8488 7.912 20.8488 8.164C20.8488 8.416 20.5368 8.632 20.0688 8.632C19.3728 8.632 18.8928 8.368 18.6288 7.852L17.2488 8.668C17.7648 9.652 18.7008 10.144 20.0448 10.144C21.6288 10.144 22.6008 9.304 22.6008 8.068Z" fill="url(#paint0_linear_1_1481)"/>
<defs>
<linearGradient id="paint0_linear_1_1481" x1="-1" y1="7" x2="24" y2="7" gradientUnits="userSpaceOnUse">
<stop stop-color="#FF6464"/>
<stop offset="1" stop-color="#6658D3"/>
</linearGradient>
</defs>
</svg>
