<svg width="20" height="20" viewBox="0 0 20 20" fill="none" xmlns="http://www.w3.org/2000/svg">
<g id="fi-sr-quote-right" clip-path="url(#clip0_1_882)">
<path id="Vector" d="M6.66667 3.33362H3.33333C2.44928 3.33362 1.60143 3.68481 0.976311 4.30993C0.35119 4.93505 0 5.7829 0 6.66695L0 10.0003C0 10.4423 0.175595 10.8662 0.488155 11.1788C0.800716 11.4914 1.22464 11.667 1.66667 11.667H6.59167C6.39394 12.8307 5.79123 13.8872 4.89003 14.6496C3.98882 15.4121 2.84713 15.8314 1.66667 15.8336C1.44565 15.8336 1.23369 15.9214 1.07741 16.0777C0.921131 16.234 0.833333 16.4459 0.833333 16.667C0.833333 16.888 0.921131 17.0999 1.07741 17.2562C1.23369 17.4125 1.44565 17.5003 1.66667 17.5003C3.43417 17.4983 5.12871 16.7953 6.37852 15.5455C7.62833 14.2957 8.33135 12.6011 8.33333 10.8336V5.00028C8.33333 4.55826 8.15774 4.13433 7.84518 3.82177C7.53262 3.50921 7.10869 3.33362 6.66667 3.33362Z" fill="#374957"/>
<path id="Vector_2" d="M18.3332 3.33362H14.9998C14.1158 3.33362 13.2679 3.68481 12.6428 4.30993C12.0177 4.93505 11.6665 5.7829 11.6665 6.66695V10.0003C11.6665 10.4423 11.8421 10.8662 12.1547 11.1788C12.4672 11.4914 12.8911 11.667 13.3332 11.667H18.2582C18.0604 12.8307 17.4577 13.8872 16.5565 14.6496C15.6553 15.4121 14.5136 15.8314 13.3332 15.8336C13.1122 15.8336 12.9002 15.9214 12.7439 16.0777C12.5876 16.234 12.4998 16.4459 12.4998 16.667C12.4998 16.888 12.5876 17.0999 12.7439 17.2562C12.9002 17.4125 13.1122 17.5003 13.3332 17.5003C15.1007 17.4983 16.7952 16.7953 18.045 15.5455C19.2948 14.2957 19.9978 12.6011 19.9998 10.8336V5.00028C19.9998 4.55826 19.8242 4.13433 19.5117 3.82177C19.1991 3.50921 18.7752 3.33362 18.3332 3.33362Z" fill="#374957"/>
</g>
<defs>
<clipPath id="clip0_1_882">
<rect width="20" height="20" fill="white"/>
</clipPath>
</defs>
</svg>
